<?xml version="1.0" encoding="UTF-8" standalone="no"?>
<svg
   xmlns:dc="http://purl.org/dc/elements/1.1/"
   xmlns:cc="http://creativecommons.org/ns#"
   xmlns:rdf="http://www.w3.org/1999/02/22-rdf-syntax-ns#"
   xmlns:svg="http://www.w3.org/2000/svg"
   xmlns="http://www.w3.org/2000/svg"
   xmlns:sodipodi="http://sodipodi.sourceforge.net/DTD/sodipodi-0.dtd"
   xmlns:inkscape="http://www.inkscape.org/namespaces/inkscape"
   width="640"
   height="480"
   version="1.1"
   id="svg52"
   sodipodi:docname="logo_v5.svg"
   inkscape:version="1.0.2 (e86c870879, 2021-01-15)"
   inkscape:export-filename="/home/Tomin/Téléchargements/mibi_s_tcl_editor_logo/logo_v5.png"
   inkscape:export-xdpi="300"
   inkscape:export-ydpi="300">
  <metadata
     id="metadata58">
    <rdf:RDF>
      <cc:Work
         rdf:about="">
        <dc:format>image/svg+xml</dc:format>
        <dc:type
           rdf:resource="http://purl.org/dc/dcmitype/StillImage" />
      </cc:Work>
    </rdf:RDF>
  </metadata>
  <defs
     id="defs56" />
  <sodipodi:namedview
     pagecolor="#ffffff"
     bordercolor="#666666"
     borderopacity="1"
     objecttolerance="10"
     gridtolerance="10"
     guidetolerance="10"
     inkscape:pageopacity="0"
     inkscape:pageshadow="2"
     inkscape:window-width="1920"
     inkscape:window-height="1016"
     id="namedview54"
     showgrid="false"
     inkscape:zoom="0.89166667"
     inkscape:cx="357.29787"
     inkscape:cy="261.45703"
     inkscape:window-x="0"
     inkscape:window-y="27"
     inkscape:window-maximized="1"
     inkscape:current-layer="svg52"
     inkscape:document-rotation="0" />
  <!-- Created with SVG-edit - https://github.com/SVG-Edit/svgedit-->
  <g
     class="layer"
     display="none"
     id="g8">
    <title
       id="title2">lines</title>
    <line
       fill="none"
       id="svg_19"
       stroke="#000000"
       stroke-width="5"
       x1="43.466667"
       x2="610.466667"
       y1="239.966667"
       y2="239.966667" />
    <line
       fill="none"
       id="svg_20"
       stroke="#000000"
       stroke-width="5"
       x1="68.466667"
       x2="635.466667"
       y1="100.96666"
       y2="100.96666" />
    <line
       fill="none"
       id="svg_21"
       stroke="#000000"
       stroke-width="5"
       x1="39.916668"
       x2="606.916668"
       y1="302.91666"
       y2="302.91666" />
    <line
       fill="none"
       id="svg_22"
       stroke="#000000"
       stroke-width="5"
       x1="42.916668"
       x2="609.916668"
       y1="338.916671"
       y2="338.916671" />
  </g>
  <g
     class="layer"
     display="none"
     id="g15">
    <title
       id="title10">old</title>
    <path
       d="m179.88335,303.88334l-7.21668,34.44999l16.66666,0l7,-34.66666l-16.44998,0.21667z"
       fill="none"
       id="svg_26"
       stroke="#000000"
       stroke-width="5" />
    <path
       d="m204.55002,304.21662l-6.88335,33.45246c0,0.64736 23.55001,-2.37905 24.21668,-15.00262c0.66667,-12.62357 -17.33334,-18.44984 -17.33334,-18.44984l0.00001,0z"
       fill="none"
       id="svg_27"
       stroke="#000000"
       stroke-width="5" />
    <path
       d="m208.88697,314.73399l-2.33906,13.83361c0,0.2677 8.00261,-0.98381 8.22915,-6.20404c0.22654,-5.22023 -5.89009,-7.62957 -5.89009,-7.62957z"
       fill="none"
       id="svg_28"
       stroke="#000000"
       stroke-width="5" />
  </g>
  <g
     class="layer"
     display="inline"
     id="g36">
    <title
       id="title17">Tcl Editor</title>
    <rect
       fill="#ffffff"
       height="574"
       id="svg_8"
       stroke="#000000"
       stroke-width="0"
       width="781"
       x="-54"
       y="-43.5" />
    <path
       d="m130.31667,304.25002l-2.98334,9.08331c0,0 -12.34999,0.25002 -13.68333,8.91669c-1.33333,8.66667 8.33334,9 8.68333,9.08331c0.35,0.08332 -2.34999,8.25002 -2,8c0.35,-0.25002 -23.68333,-0.41664 -22.01666,-18.41664c1.66667,-18 32,-16.66667 32,-16.66667z"
       fill="#ffffff"
       id="svg_24"
       stroke="#000000"
       stroke-width="5" />
    <path
       d="m74.20001,312.86667l-22.20001,0.13333l3,-10l62,0l-3,10l-21,0l-7,25l-17,0l5.20001,-25.13333z"
       fill="#ffffff"
       id="svg_23"
       stroke="#000000"
       stroke-width="5" />
    <path
       d="m138.21669,304.21668l-8.88336,33.44999l23.33334,0l0.66666,-7.66667l-14.66666,0l6.33333,-26.33333l-6.78331,0.55001z"
       fill="#ffffff"
       id="svg_25"
       stroke="#000000"
       stroke-width="5"
       transform="matrix(1 0 0 1 0 0)" />
    <path
       d="m187.21668,303.55001l-13.21668,34.11666l20.33333,1l4,-9l-13.66666,0l4.66666,-9l9,0l2,-6l-8.66666,-0.33334l2.66666,-5.33333l10,0l2.33334,-5.33333l-19.44999,-0.11666z"
       fill="#ffffff"
       id="svg_31"
       stroke="#000000"
       stroke-width="5"
       transform="matrix(1 0 0 1 0 0)" />
    <path
       d="m214.43152,305.40087l-6.88335,33.45245c0,0.64737 23.55002,-2.37904 24.21669,-15.00262c0.66666,-12.62357 -17.33334,-18.44983 -17.33334,-18.44983z"
       fill="#ffffff"
       id="svg_33"
       stroke="#000000"
       stroke-width="5"
       transform="matrix(1 0 0 1 0 0)" />
    <path
       d="m218.76847,315.91824l-2.33905,13.8336c0,0.26771 8.00261,-0.98381 8.22915,-6.20404c0.22654,-5.22023 -5.89009,-7.62956 -5.89009,-7.62956l-0.00001,0z"
       fill="none"
       id="svg_32"
       stroke="#000000"
       stroke-width="5" />
    <path
       d="m239.49275,303.38334l-3.65877,34.44999l8.4498,0l3.54891,-34.66666l-8.33994,0.21667z"
       fill="#ffffff"
       id="svg_34"
       stroke="#000000"
       stroke-width="5"
       transform="matrix(1 0 0 1 0 0)" />
    <path
       d="m265.09657,313.2l-10.92924,0.13333l1.47693,-10l30.52307,0l-1.47692,10l-10.33846,0l-3.44616,25l-8.36923,0l2.56001,-25.13333z"
       fill="#ffffff"
       id="svg_35"
       stroke="#000000"
       stroke-width="5" />
    <g
       id="svg_38">
      <path
         d="m298.55002,303.88334c-5.66667,-2.66666 -13,6.66667 -15.66667,14.33334c-2.66667,7.66667 -1,18 3.44998,18.44999c4.44998,0.44999 12.55002,-6.44999 14.88335,-14.11666c2.33334,-7.66666 3,-16 -2.66666,-18.66666l0,-0.00001z"
         fill="#ffffff"
         id="svg_36"
         stroke="#000000"
         stroke-width="5" />
      <path
         d="m294.29642,312.41344c-1.7697,-1.22391 -4.05991,3.05978 -4.89271,6.57854c-0.8328,3.51875 -0.3123,8.26142 1.07743,8.46795c1.38973,0.20653 3.91938,-2.96034 4.64808,-6.47909c0.72871,-3.51875 0.93691,-7.34349 -0.8328,-8.5674z"
         fill="#ffffff"
         id="svg_37"
         stroke="#000000"
         stroke-width="5"
         transform="rotate(5.77487, 292.334, 319.833)" />
    </g>
    <path
       d="m303.04275,336.23677l14.09154,-33.09615c-3.84096,-0.83682 21.43731,4.08644 20.95719,10.22311c-0.48012,6.13667 -10.08251,8.08925 -10.39457,8.1869c-0.31205,0.09765 13.7554,16.91766 13.44335,16.73637c-0.31205,-0.18129 -16.49213,0.18129 -16.80418,0c-0.31206,-0.18129 -5.9295,-9.30266 -6.24156,-9.48394c-0.31205,-0.18129 -4.48914,7.43371 -4.32107,8.64712c0.16806,1.21341 -10.73069,-1.21341 -10.73069,-1.21341l-0.00001,0z"
       fill="#ffffff"
       id="svg_40"
       stroke="#000000"
       stroke-width="5" />
    <path
       d="m323.2955,310.46858l-3.00813,6.50159c3.81846,0.20366 6.66404,0.4423 8.33429,-1.6832c1.67025,-2.12549 -5.32617,-4.8184 -5.32617,-4.8184l0.00001,0.00001z"
       fill="none"
       id="svg_41"
       stroke="#000000"
       stroke-width="5" />
    <path
       d="m570.25,122.75l-14.25,0l-9.25,7.25l-2,10l3.75,7.75l4.25,13.75l-11.5,-3l-4.75,-4.25l-5.5,-6.75l-2.25,-9l-2,-9c0,0 0.5,-2.75 0.75,-3.25c0.25,-0.5 3.75,-8 3.75,-8c0,0 13.25,-9.25 13.25,-9.25c0,0 15.75,-3 15.75,-3c0,0 8.5,-2.25 8.5,-2.25c0,0 1.5,19 1.5,19z"
       fill="#ffffff"
       id="svg_2"
       stroke="#000000"
       stroke-width="0" />
    <path
       d="m552,162l16.75,8.5l10.25,13.25l4.25,13c0,0 -2.5,12.25 -2.5,12.25c0,0 -14,6.75 -14,6.75c0,0 -15,3.75 -15,3.75c0,0 -24,-0.75 -24,-0.75c0,0 -4.5,-2.5 -4.5,-2.5c0,0 0.5,11.25 0.5,11.25c0,0 0.25,13.25 0.25,13.25c0,0 54.75,-7.25 54.75,-7.25c0,0 17.5,-8.5 17.5,-8.5c0,0 5.25,-7 5.25,-7c0,0 5.25,-14 5.25,-14c0,0 -1,-15 -1,-15c0,0 -6.5,-10.5 -6.5,-10.5c0,0 -10,-13 -10,-13c0,0 -40.5,-18.25 -40.5,-18.25c0,0 3.25,14.75 3.25,14.75z"
       fill="#ffffff"
       id="svg_3"
       stroke="#000000"
       stroke-width="0" />
    <path
       d="m547.75,146.75l5.5,3.25l2.75,12.75l-12.75,-4.75l4.5,-11.25z"
       fill="#ffffff"
       id="svg_5"
       stroke="#000000"
       stroke-width="0" />
  </g>
  <g
     class="layer"
     id="g50">
    <title
       id="title38">Mibi&amp;#x27;s</title>
    <path
       d="m415.87563,240.35795l28.41669,-139.55001l30,0.97896l-25,138.03263l-33.41669,0.53841l0,0.00001z"
       fill="#ffffff"
       id="svg_14"
       stroke="#000000"
       stroke-width="5"
       transform="matrix(1 0 0 1 0 0)" />
    <path
       d="m44.58331,242.54999l45.41669,-140.54999l61,0l11,93l66,-94l59,0l-29,140l-40,0l26,-106l-84,105l-16,0l-15,-126l-42,128l-42.41669,0.54999z"
       fill="#ffffff"
       id="svg_4"
       stroke="#000000"
       stroke-width="5"
       transform="matrix(1 0 0 1 0 0)" />
    <path
       d="m278.58331,240.55l28.41669,-139.55l30,0.97895l-25,138.03264l-33.41669,0.53841z"
       fill="#ffffff"
       id="svg_6"
       stroke="#000000"
       stroke-width="5"
       transform="matrix(1 0 0 1 0 0)" />
    <path
       d="m374.26144,101.54999l-24.26144,138.45001c0,0 84.97262,1.54999 90.49181,-34.45001c5.5192,-36 -59.33137,-42 -46.33823,-41.54999c12.99314,0.45001 38.05944,-5.45001 35.29984,-32.45001c-2.7596,-27 -55.19198,-30 -55.19198,-30z"
       fill="#ffffff"
       id="svg_11"
       stroke="#000000"
       stroke-width="5" />
    <path
       d="m400.02851,118.65316l-5.96411,33.44721c0,0 21.57932,-2.5253 21.57932,-13.86334c0,-11.33803 -15.61521,-19.58387 -15.61521,-19.58387z"
       fill="none"
       id="svg_12"
       stroke="#000000"
       stroke-width="5"
       transform="rotate(1.02331, 404.854, 135.376)" />
    <path
       d="m392.48829,180.67502l-10.37075,42.45c-1.98929,-0.20667 37.5234,-3.20502 37.5234,-17.59485c0,-14.38982 -27.15265,-24.85515 -27.15265,-24.85515z"
       fill="none"
       id="svg_13"
       stroke="#000000"
       stroke-width="5"
       transform="rotate(-5.93134, 400.842, 201.9)" />
    <path
       d="m496.58331,102.54999l-16.58331,43.45001l20,1l25,-45l-28.41669,0.54999z"
       fill="#ffffff"
       id="svg_15"
       stroke="#000000"
       stroke-width="5"
       transform="matrix(1 0 0 1 0 0)" />
    <g
       id="svg_18">
      <path
         d="m570.58331,125.74582l-0.58331,-23.74581c0,0 -40.41669,4.79127 -43.41669,22.69278c-3,17.90152 8,31.59091 20.41669,35.22388c12.41669,3.63297 43.58331,18.48067 35.58331,42.70036c-8,24.2197 -61,13.6894 -60.58331,13.11024c0.41669,-0.57915 1.58331,24.79885 2,25.27273"
         fill="none"
         id="svg_16"
         stroke="#000000"
         stroke-width="5" />
      <path
         d="m523.88337,238.61314c0,0 82.14151,4.21212 82.98531,-34.75c0.84379,-38.96212 -49.55274,-52.65152 -51.44671,-53.42374c-1.89398,-0.77223 -17.37038,-6.59899 -10.28627,-19.23535c7.08412,-12.63637 26.31242,-7.37121 25.41844,-8.14344"
         fill="none"
         id="svg_17"
         stroke="#000000"
         stroke-width="5" />
    </g>
  </g>
  <path
     style="fill:#000000;stroke:none;stroke-width:0.377953"
     id="path899"
     d="m 331.05793,427.29945 c 2.88584,-2.44859 5.01183,-5.56018 6.92798,-8.78563 2.35044,-4.24421 3.81262,-8.87814 5.02101,-13.55361 0.39505,-2.21907 1.34835,-4.68831 0.65114,-6.9405 -1.34735,-2.53143 -4.49089,0.7185 -5.79214,1.49397 -1.88222,1.80643 -2.76547,4.3038 -3.55931,6.72453 -1.05648,3.86088 -1.55772,7.85257 -1.90345,11.83269 -0.16503,2.43591 -0.0385,4.44354 1.38466,6.46586 0.78335,0.93949 1.73301,1.75605 2.86661,2.23404 2.89955,0.37824 5.53633,-2.36202 7.4349,-4.39138 1.49581,-1.68948 3.086,-3.29107 4.61611,-4.94877 1.20814,-1.28272 2.23233,-2.70754 2.84174,-4.36674 -0.0222,-0.0309 0.20779,-0.73495 0.27279,-0.70145 0.0369,0.019 0.1091,0.0813 0.0727,0.10123 -1.43979,0.78686 -2.91821,1.50087 -4.37732,2.25131 0.0542,0.22126 0.1981,0.38465 0.34133,0.55186 1.58257,1.24553 5.99644,-4.29887 3.8745,-3.39845 0.091,0.29911 -0.33503,0.0427 -0.46735,0.0234 -2.52575,0.94005 -7.07491,6.12807 -7.40896,7.1345 -0.6228,2.31047 -0.73253,4.69931 -0.43228,7.06385 0.26423,1.48333 0.23739,2.28329 1.99267,2.17775 0.87513,-0.26598 0.93202,-0.23254 1.7932,-0.74184 4.70432,-2.7821 5.8748,-3.03498 8.67323,-6.64205 0.82561,-1.32128 1.78525,-2.75077 1.93267,-4.35465 0.0744,-0.80916 -0.0732,-1.16544 -0.25289,-1.93888 -0.61909,-1.81125 -1.52617,-2.94219 -3.33664,-3.58966 -0.90169,-0.18423 -1.73998,0.1048 -2.51617,0.55617 -5.14235,2.9904 -3.64609,1.74748 -5.56066,3.39281 -0.97546,0.77045 -1.08974,1.67884 -1.04382,2.86381 0.0983,1.66943 0.5976,2.83254 2.03898,3.71398 1.79407,0.70127 3.75396,0.14765 5.54612,-0.30034 2.37613,-0.69038 4.61004,-1.77252 6.79884,-2.90938 3.55939,-1.89423 7.04303,-3.91826 10.3156,-6.27094 0.96609,-0.55772 0.64738,-1.51482 -0.46515,-1.4882 -0.31311,0.007 -0.61939,0.0934 -0.92908,0.1401 -3.28039,1.29249 -6.72943,2.82715 -9.15916,5.44834 -0.85285,0.92006 -0.95887,1.20844 -1.59302,2.2522 -1.05851,2.19589 -0.5616,3.7527 0.91407,5.54534 0.5605,0.4695 1.38129,1.05157 2.16501,0.62079 5.05935,-2.781 5.01225,-2.14723 7.02226,-5.45463 1.4287,-2.45454 2.39707,-5.11925 3.22581,-7.82387 0.34068,-0.28557 0.48234,-2.65623 0.74013,-2.95362 -1.76412,0.95265 -3.60334,1.77774 -5.29237,2.85794 -0.15948,0.10199 -0.0387,0.37661 -0.0595,0.56477 -0.18018,1.63476 -0.32337,3.27212 -0.47123,4.91014 -0.41028,5.38858 -1.26342,10.71673 -2.39415,15.99684 -0.99812,3.81836 -1.87905,8.06824 -4.79947,10.96173 -0.47109,0.46674 -1.02529,0.84135 -1.53793,1.26202 -0.60606,0.3541 -2.38914,1.4706 -1.81818,1.0623 0.93058,-0.66548 2.0772,-1.04084 2.89989,-1.83585 0.43516,-0.42051 -1.11484,0.47443 -1.68897,0.66568 -0.61294,0.20417 -1.83062,0.53293 -2.53887,0.43684 -0.27167,-0.0369 -0.5021,-0.22033 -0.75314,-0.3305 -0.11834,-0.23916 -0.31468,-0.4537 -0.35502,-0.71747 -0.25039,-1.63723 0.89543,-3.55168 1.67251,-4.8395 1.22859,-2.03608 1.94092,-2.82337 3.42345,-4.71857 3.88864,-4.76495 8.96776,-8.26942 13.87242,-11.88822 3.89222,-2.95057 7.67744,-6.0383 11.40186,-9.19694 0.47229,-0.51161 2.65814,-1.91907 2.23977,-2.86347 -0.0676,-0.1525 -0.2148,-0.25524 -0.3222,-0.38285 -0.58372,-0.30381 -1.19142,-0.30713 -1.78354,0.0314 -4.7486,2.71494 -5.07317,2.30412 -7.29539,5.67009 -0.99324,2.26263 -2.67452,5.4818 -1.80815,8.03783 0.12465,0.36777 0.39095,0.67107 0.58643,1.0066 0.30379,0.21846 0.56974,0.50272 0.91136,0.65539 1.189,0.53139 2.58154,0.20325 3.65595,-0.42028 5.95017,-3.45315 4.4728,-2.1191 7.09898,-4.82081 1.25608,-1.63116 2.83928,-3.50561 2.80912,-5.70356 -0.005,-0.36556 -0.10365,-0.72381 -0.15547,-1.08572 -0.66577,-1.64231 -1.89305,-3.14992 -3.72357,-3.51294 -0.31159,-0.0618 -0.63381,-0.0438 -0.95071,-0.0657 -3.7365,0.80355 -8.50606,3.25854 -8.68089,7.58027 -0.0211,0.52228 0.10131,1.04049 0.15196,1.56074 0.23963,0.47506 0.38459,1.01124 0.7189,1.42517 1.82445,2.25894 5.95241,2.53655 8.60338,2.46983 0.86967,-0.0219 1.73312,-0.15351 2.59968,-0.23027 1.32214,-0.5789 2.64429,-1.1578 3.96643,-1.7367 l 0.13453,-0.10101 v 0 l -0.0888,-1.09507 c -2.80517,-0.13038 -7.6272,-0.26007 -9.65473,-2.49923 -0.30293,-0.33456 -0.46208,-0.77543 -0.69312,-1.16314 -0.21607,-1.49052 -0.31797,-2.53047 0.61736,-3.84896 0.22623,-0.31891 1.19299,-0.98037 0.83441,-0.82447 -1.12133,0.48751 -6.23739,3.23793 -3.15992,1.86285 0.30852,-0.0404 0.61453,-0.12962 0.92556,-0.12107 1.67878,0.0462 2.99346,1.37654 3.36786,2.92465 0.0147,0.32892 0.0665,0.65827 0.0442,0.98677 -0.13936,2.05264 -1.60936,3.80317 -2.84289,5.31776 -2.15481,2.03707 -1.4318,1.16162 2.46013,-0.81629 0.39486,-0.20067 -0.74984,0.48171 -1.16116,0.64604 -0.99978,0.39943 -1.9359,0.34114 -2.811,-0.27194 -0.16885,-0.26612 -0.3989,-0.50216 -0.50657,-0.79837 -0.87532,-2.40824 0.72866,-5.49224 1.79649,-7.55333 0.31155,-0.42268 0.59466,-0.86787 0.93465,-1.26802 0.27785,-0.32701 1.31087,-1.06895 0.91346,-0.90709 -1.38247,0.56308 -2.61929,1.43272 -3.93504,2.13776 -0.20822,0.11158 0.39815,-0.25706 0.61212,-0.35718 0.0957,-0.0448 0.47278,-0.14223 0.63388,-0.18497 -0.49143,1.03091 -1.69435,1.6706 -2.43687,2.50674 -3.58458,3.14436 -7.28,6.16267 -11.09245,9.02723 -4.90296,3.63109 -9.93289,7.19687 -13.77528,12.00863 -1.79268,2.30995 -5.93825,7.09763 -5.21342,10.32798 0.0859,0.38278 0.35591,0.69923 0.53387,1.04885 0.32506,0.17924 0.61323,0.45535 0.97517,0.53771 1.20095,0.27326 3.55161,-0.55002 4.57198,-1.07219 5.0296,-2.57389 5.19043,-2.72727 8.55695,-4.84172 1.39322,-1.23502 1.81829,-1.43943 2.83202,-3.01895 1.82232,-2.83942 2.37657,-6.26451 3.19471,-9.47068 1.08495,-5.33149 1.97574,-10.69847 2.50719,-16.11612 0.16172,-1.38166 0.32163,-2.76279 0.5101,-4.14108 0.038,-0.27774 0.0771,-0.55532 0.11627,-0.8329 0.0269,-0.191 0.2648,-0.63401 0.0819,-0.57284 -1.80189,0.60262 -3.47953,1.52731 -5.21929,2.29097 -0.096,0.91176 -0.45106,1.9296 -0.67735,2.85275 -0.8176,2.66718 -1.80857,5.28536 -3.27499,7.67281 -0.24032,0.35141 -0.45909,0.71858 -0.72097,1.05423 -0.22262,0.28533 -1.06336,0.94334 -0.72917,0.80443 1.48494,-0.61725 2.83311,-1.5225 4.25659,-2.27068 0.20741,-0.10902 -0.38117,0.2939 -0.60794,0.35292 -0.53942,0.14039 -0.78251,-0.13825 -1.20285,-0.39739 -1.4574,-1.51939 -1.8113,-2.80425 -0.86556,-4.76679 0.59704,-0.98776 0.63966,-1.17983 1.48309,-2.0408 0.32787,-0.33468 1.48717,-1.10322 1.0502,-0.9342 -1.15283,0.44592 -2.16977,1.18473 -3.2502,1.78516 -0.37837,0.21028 0.75356,-0.42766 1.14397,-0.61465 0.32146,-0.15396 0.65925,-0.27123 0.98887,-0.40685 0.21779,-0.051 0.43224,-0.11939 0.65338,-0.15311 0.0938,-0.0143 0.19492,0.0411 0.28461,0.01 0.0451,-0.0156 -0.0422,-0.14022 -0.0834,-0.11623 -0.24391,0.14188 -0.38767,0.42716 -0.66692,0.5214 -0.71079,0.50688 -1.42437,1.00679 -2.15743,1.48139 -0.30976,0.20055 -1.2578,0.77153 -0.93505,0.59264 0.97121,-0.53827 6.21424,-3.55828 2.8878,-1.66055 -2.18276,1.16864 -4.41237,2.26368 -6.76506,3.05198 -1.70616,0.46967 -3.53712,1.02899 -5.31099,0.65798 -1.31204,-0.56653 -1.93204,-1.56015 -2.07172,-2.98921 0.0717,-1.2251 0.32742,-1.72581 1.3109,-2.45594 1.73539,-1.28158 0.4174,-0.28199 -3.72883,2.05139 -0.18221,0.10255 0.35166,-0.22677 0.53388,-0.32931 0.28968,-0.16302 0.82756,-0.43558 1.15637,-0.51543 0.19004,-0.0461 0.38903,-0.0404 0.58355,-0.0607 1.67059,0.32418 2.27589,1.71523 2.85448,3.18176 0.46712,2.39521 -0.50361,3.85798 -1.80697,5.80805 -0.75938,0.92564 -0.99148,1.27199 -1.87662,2.09289 -0.34339,0.31847 -1.50725,1.08655 -1.07639,0.903 1.28627,-0.54793 2.44312,-1.36067 3.68015,-2.01218 0.31814,-0.16755 0.95841,-0.79203 0.64041,-0.62422 -0.23973,0.12651 -2.06059,1.398 -2.30961,1.50507 -1.46062,0.43518 -1.61103,0.37941 -2.01083,-1.16469 -0.36087,-2.27321 -0.38427,-4.53161 0.32212,-6.75576 0.37109,-1.07494 0.73492,-2.14743 1.37441,-3.10099 1.04247,-1.55445 -2.78277,0.46175 -2.68034,0.9925 0.11946,0.91204 0.51482,-0.21017 0.89719,0.16166 -0.1804,-1.16882 1.7783,-0.41202 4.18099,-2.81798 0.0319,0.13419 -0.007,0.23455 -0.14119,0.10517 -4.48289,5.2528 -3.34257,0.41342 -4.82918,2.81007 -0.85941,1.54635 -1.82099,3.02383 -3.07134,4.2907 -1.55787,1.65595 -3.14408,3.28499 -4.6799,4.96161 -0.40327,0.39474 -0.75602,0.76337 -1.19504,1.11375 -0.15654,0.12494 -0.66599,0.44325 -0.48972,0.34815 8.82802,-4.76258 5.07334,-2.84151 3.57598,-2.11956 -1.13179,-0.26464 -1.99428,-1.05399 -2.71373,-1.93376 -1.34307,-1.80298 -1.65404,-3.68566 -1.67881,-5.91915 -0.0577,-3.8541 0.42371,-7.6816 1.34623,-11.42617 0.7161,-2.35239 1.49102,-4.80465 3.47653,-6.40846 -0.9649,0.52858 -1.92687,1.06253 -2.89469,1.58574 -0.21374,0.11555 0.4338,-0.30661 0.6748,-0.27568 0.33563,0.0431 0.49362,0.39607 0.59118,0.66412 0.29374,2.25956 -0.21388,4.52104 -0.65846,6.7281 -1.06726,4.60917 -2.43435,9.16454 -4.77462,13.3095 -1.89995,3.18608 -3.98618,6.30449 -6.92695,8.6347 l 3.50091,-1.40267 z"
     sodipodi:nodetypes="scccccccccccsccccccccscsccsccccccccsccscccscccscsssscsscccscscscsscscscscsscccccscsscscscsscscssssccccscsscsccssscccssssccsssscssccsscccccssscccsssscccscccccccsccccccsscccccs" />
  <path
     style="fill:#000000;stroke:none;stroke-width:0.377953"
     id="path901"
     d="m 415.15991,430.95689 c 3.30592,-1.68911 6.59184,-3.57033 9.43811,-5.98254 1.82341,-1.54533 2.5524,-2.34914 4.27294,-4.06934 2.88688,-3.00526 5.36885,-6.3545 7.20689,-10.10032 1.11757,-2.27756 1.25911,-2.85658 2.10456,-5.18751 0.93991,-3.05181 1.73782,-6.35827 0.6105,-9.45826 -0.45859,-0.88902 -1.10217,-1.46109 -2.10903,-1.12474 -3.75901,1.89391 -4.42483,2.31069 -6.28969,4.99512 -0.95073,1.39592 -1.60299,2.96316 -2.20636,4.53203 -1.34296,3.7029 -1.99553,7.58528 -2.54157,11.46975 -0.48434,3.27358 -0.51835,6.5489 0.35235,9.74897 0.44202,1.35806 1.09268,2.62654 1.86842,3.81996 0.77022,0.81829 1.92027,0.48329 2.88025,0.24958 3.46702,-1.09619 6.73089,-2.98378 9.41399,-5.4397 1.32413,-1.38824 2.41262,-2.99685 3.25702,-4.71694 0.19332,-0.59707 0.61168,-1.25521 0.52266,-1.91197 -0.01,-0.0279 -0.0469,-0.1074 -0.0293,-0.0837 1.12641,1.51813 -3.28657,1.8722 -4.87893,2.89096 -0.12911,0.0826 0.11179,1.16448 0.13597,1.29778 0.28862,1.11014 1.21263,1.38186 2.24148,1.45891 1.19009,-0.008 2.30796,-0.36139 3.36388,-0.88363 3.44071,-1.45995 5.60067,-3.20545 8.02416,-5.6441 0.54157,-0.58686 1.11952,-1.13917 1.66206,-1.72499 1.45174,-1.67952 0.2767,-0.61942 -4.91969,2.4181 -0.0449,0.0263 -0.13109,0.6909 -0.15591,0.86167 -0.23756,1.22207 -0.1918,2.41783 0.24961,3.58153 0.4404,0.89695 1.16982,1.47449 2.04394,1.90806 0.89293,0.3549 1.82391,0.61369 2.77246,0.76552 0.97098,0.16517 1.91305,-0.0231 2.84332,-0.29368 2.90696,-1.09489 5.69422,-2.69282 7.70243,-5.05816 0.54942,-0.67214 0.9817,-1.4266 1.43515,-2.16398 0.10405,-0.28571 0.43863,-0.52017 0.44483,-0.83336 0.007,-0.1324 -0.0316,-0.26065 -0.0744,-0.38437 -0.0523,-0.37538 -0.0549,-0.75625 -0.063,-1.13462 -0.0163,-0.2454 0.0231,-0.49611 -0.0319,-0.73606 -4.85876,2.10862 -5.10938,1.40316 -5.78295,4.61642 -0.33939,2.2398 -0.34355,4.51558 -0.41925,6.77528 -0.0578,4.17202 -0.52864,8.28754 -1.5125,12.33906 -1.23826,4.36135 -3.54129,8.26732 -6.55403,11.6238 -0.38822,0.34495 -0.75274,0.71857 -1.16464,1.03485 -0.36131,0.27743 -1.54248,0.96929 -1.14822,0.74108 1.40277,-0.81198 2.82218,-1.59992 4.17478,-2.49297 0.29982,-0.19796 -0.66074,0.28459 -1.00167,0.39792 -0.84402,0.28054 -1.09589,0.27782 -1.96725,0.40361 -0.66812,0.0241 -2.98085,0.18133 -3.24575,-0.73909 -0.0503,-0.17493 0.005,-0.36404 0.007,-0.54606 0.0846,-0.26995 0.13893,-0.55134 0.2538,-0.80986 1.19967,-2.69985 3.65322,-5.4951 5.51479,-7.77244 2.9229,-3.52771 6.22665,-6.70379 9.56825,-9.82693 3.03546,-2.90487 6.2737,-5.58036 9.56908,-8.18199 1.55333,-1.35975 3.34899,-2.41113 4.95809,-3.69447 -1.2297,0.35874 -0.23309,0.058 -2.9284,1.08523 0,0 -0.13239,0.10379 -0.13239,0.10379 v 0 c -2.09819,0.79822 -1.28525,0.45161 -2.46666,0.9719 -1.82174,1.09628 -3.42531,2.5172 -5.10492,3.8112 -3.22794,2.6264 -6.41824,5.30065 -9.42934,8.17647 -3.29666,3.11033 -6.47945,6.34693 -9.38083,9.83355 -1.39261,1.71381 -2.7971,3.42293 -4.04428,5.24819 -0.56737,0.83036 -1.28073,1.90898 -1.63346,2.88219 -0.11922,0.32894 -0.14255,0.68507 -0.21383,1.02761 0.0475,0.28069 0.037,0.57769 0.14261,0.84208 0.53478,1.33896 2.50972,1.20403 3.6499,1.243 4.41026,-0.33511 8.41551,-2.96387 11.48488,-6.05247 2.82988,-3.5101 5.08295,-7.48963 6.35205,-11.83471 0.98759,-4.09134 1.40408,-8.24172 1.48018,-12.44993 0.11709,-2.24223 0.1543,-4.50075 0.52172,-6.72019 0.62209,-3.05392 1.53964,-2.68182 -4.76639,0.62596 -0.0438,0.25452 -0.0139,0.51209 -0.0137,0.77006 0.008,0.40798 0.007,0.81763 0.0569,1.22329 -0.0192,0.0623 -0.0441,0.0993 -0.0975,0.14041 -0.18913,0.17273 -0.26618,0.48652 -0.4371,0.69372 -0.44484,0.71989 -0.89283,1.44072 -1.46874,2.06618 -0.39359,0.42327 -0.79113,0.81941 -1.25449,1.16844 -0.15874,0.11957 -0.66326,0.43675 -0.48933,0.3406 1.54796,-0.85573 3.07593,-1.74714 4.6139,-2.62072 -0.14402,0.0789 -0.28803,0.15776 -0.43205,0.23664 -0.87451,0.33081 -1.77967,0.60944 -2.72653,0.52152 -0.94366,-0.051 -1.84572,-0.2285 -2.72914,-0.57427 -0.78899,-0.30785 -1.48952,-0.6913 -1.8874,-1.48027 -0.43726,-1.05569 -0.43347,-2.14218 -0.23085,-3.26012 0.084,-0.58675 0.14516,-0.95729 0.085,-0.93747 -3.19005,1.05157 -4.01291,0.8479 -5.3779,2.36506 -0.51991,0.56504 -1.05508,1.11623 -1.59129,1.66569 -1.89527,1.82527 -6.30984,5.10947 1.74545,-0.15699 -1.00798,0.62324 -2.10983,1.06026 -3.29576,1.1941 -0.74677,0.0595 -1.70394,0.15204 -1.92759,-0.74821 -0.0974,-0.48329 -0.0725,-0.30064 -0.12461,-0.80926 -0.0146,-0.14248 0.0965,-0.46982 -0.0404,-0.42779 -1.72671,0.52991 -3.36068,1.32484 -5.04102,1.98726 0.0474,0.21448 0.0687,0.12825 8.1e-4,0.26647 -0.21892,0.57041 -0.2872,1.20001 -0.60434,1.73657 -0.83714,1.65773 -1.9064,3.20818 -3.26798,4.48062 -1.63305,1.36037 -5.17368,3.33298 2.43185,-1.06745 0.10626,-0.0615 -0.53531,0.33436 -1.41612,0.67386 -0.21864,0.0843 -0.44361,0.15108 -0.66541,0.22662 -0.78407,0.2178 -1.69079,0.56292 -2.5004,0.30993 -0.8952,-1.01742 -1.40802,-2.31652 -1.93439,-3.54655 -0.94938,-3.05402 -0.98088,-6.21862 -0.57928,-9.38099 0.47097,-3.82871 1.10769,-7.6564 2.4515,-11.28994 0.61458,-1.54187 1.2672,-3.07932 2.25675,-4.42532 1.55433,-2.22615 4.12664,-3.84092 -2.20838,0.15388 0.7037,-0.60232 1.16794,-0.43702 1.64416,0.38272 0.93668,2.99698 0.27594,6.16092 -0.61991,9.09121 -0.80931,2.20578 -1.01814,2.96478 -2.10121,5.10688 -1.86929,3.69707 -4.39336,6.99692 -7.2629,9.97201 -1.99754,1.94485 -3.97754,3.8169 -6.2468,5.44588 -0.50155,0.36004 -2.09864,1.28914 -1.53584,1.03529 1.07623,-0.48545 2.05314,-1.16648 3.08774,-1.73528 0.29866,-0.1642 -0.58641,0.34752 -0.87961,0.52128 0,0 -3.71407,2.95636 -3.71407,2.95636 z" />
  <path
     style="fill:#000000;stroke:none;stroke-width:0.377953"
     id="path903"
     d="m 492.70192,428.29324 c 0.26345,-1.88823 0.82712,-3.68942 1.58025,-5.43383 0.71039,-1.60909 1.6504,-3.06775 3.10853,-4.0746 2.13232,-1.11476 -0.65623,0.33065 -3.36911,2.02352 -0.16865,0.10524 0.36903,-0.14869 0.55786,-0.21084 0.46217,-0.15211 0.90338,-0.21062 1.38573,-0.23098 0.9541,0.10432 1.6901,0.72089 2.33394,1.38519 0.75626,0.90147 0.99477,2.06572 1.31083,3.16778 0.30969,1.25851 0.47907,2.54076 0.61847,3.82684 0.0854,1.03571 0.13269,2.07543 0.12556,3.11477 0.002,0.17834 0.007,0.37083 -0.0379,0.53958 6.84648,-3.21617 5.09162,-1.24425 5.94917,-4.809 0.59342,-2.04431 1.66043,-3.89816 2.87374,-5.63087 1.09939,-1.36431 2.42071,-2.52181 3.89862,-3.45574 2.35379,-1.27423 -0.45141,0.23623 -4.08772,2.40612 -0.14301,0.0853 0.30078,-0.14372 0.45554,-0.20525 0.41028,-0.16312 0.79336,-0.23406 1.23004,-0.26349 0.74177,-0.0133 1.27689,0.29871 1.76799,0.82492 0.77288,1.09576 0.95426,2.42769 1.13101,3.72254 0.11825,1.35882 0.16407,2.72368 0.18819,4.08713 0.01,0.90085 0.008,1.80198 -0.0247,2.70244 -0.0118,0.20163 0.001,0.40682 -0.0297,0.60686 -0.003,0.13555 -0.01,0.27255 0.0288,0.40383 7.24726,-3.79255 5.19274,-1.24489 6.15974,-5.52078 0.48091,-2.02773 1.28054,-3.95755 2.33303,-5.75128 0.4461,-0.67553 0.89311,-1.38276 1.54038,-1.88972 0.1754,-0.13738 0.75768,-0.46898 0.56539,-0.35647 -5.08688,2.97635 -6.41828,3.51313 -4.1847,2.56401 0.86536,-0.2746 1.76682,-0.44576 2.66063,-0.23405 0.959,0.44403 1.09197,1.60333 1.2438,2.53109 0.15726,1.85815 0.16907,3.72262 0.33517,5.58061 0.0753,0.93788 0.12389,1.90589 0.9425,2.48754 0.84202,0.36453 1.78683,0.32132 2.66335,0.126 3.62274,-1.24494 6.56967,-3.27435 8.90261,-6.1272 1.14105,-1.44556 2.13696,-2.99239 3.02177,-4.60545 0.68669,-1.33093 1.31682,-2.69182 1.89526,-4.07313 0.0322,-0.0332 0.13705,-0.12188 0.0965,-0.0996 -1.83319,1.00636 -3.73748,1.89826 -5.47979,3.05486 -0.17281,0.11471 -0.033,0.41359 -0.0557,0.61977 -0.11179,1.01504 -0.25918,2.0264 -0.3783,3.0407 -0.26599,2.59958 0.31598,4.21509 2.34993,5.85437 1.58357,0.76475 3.07997,0.25491 4.50897,-0.60418 6.52486,-3.92259 4.6083,-2.19826 7.44645,-5.00083 2.55454,-2.58879 4.45925,-5.63185 5.82976,-8.98186 0.90435,-2.60667 1.36656,-5.353 1.35828,-8.11024 -0.11775,-1.16706 -0.57614,-2.11689 -1.71847,-2.50474 -4.79969,-0.56756 -6.07197,2.74751 -6.94559,5.93679 -0.83475,3.16725 -1.17244,6.42471 -1.10255,9.69234 0.0908,2.31388 0.55037,4.58194 1.44848,6.71459 0.45485,1.16379 1.21275,2.04083 2.18417,2.79646 0.86277,0.63179 1.84945,0.81744 2.89002,0.66783 2.70317,-1.13993 6.0034,-2.57635 7.82735,-5.10607 0.44448,-0.6829 0.85719,-1.39876 1.1416,-2.16455 0.22335,-0.46212 0.13815,-0.97714 0.22261,-1.46357 -0.29831,-2.33341 -3.97946,0.86884 -4.81088,2.29245 -0.0896,0.43261 0.0347,0.85899 0.21751,1.24857 0.32752,0.59605 0.82057,0.937 1.45584,1.13702 0.42859,0.12184 0.87377,0.15592 1.31204,0.22533 0.40978,0.17067 0.8371,0.27982 1.27467,0.3505 0.65398,0.0581 1.30689,-0.0546 1.95257,-0.14761 2.18749,-0.44781 4.62596,-2.36573 6.13627,-3.23883 0.69394,-0.53685 1.23294,-1.20868 1.65372,-1.97218 0.39497,-0.43004 0.50486,-1.39687 1.08899,-1.63506 -1.47961,0.79278 -3.00657,1.50289 -4.43882,2.37833 -0.1228,0.0751 -0.0846,0.27513 -0.12723,0.41259 -0.0591,0.19039 -0.116,0.38145 -0.17783,0.57096 -0.2701,0.82784 -0.56926,1.646 -0.86491,2.46491 -1.00741,2.55277 -0.80579,4.28307 -0.14147,6.89236 0.64594,2.09066 1.13998,4.2435 3.20406,5.3378 1.41705,0.33287 2.69242,-0.68163 3.85965,-1.33054 0,0 0.13446,-0.1011 0.13446,-0.1011 v 0 c 0.0848,-0.0889 1.10703,-1.03177 1.10689,-1.40442 -6e-5,-0.14304 -0.22877,-0.17178 -0.34316,-0.25767 -1.83022,-1.13821 -2.44287,-2.89951 -3.07837,-4.88937 -0.62863,-2.41507 -0.84414,-3.98049 -0.14252,-6.40934 0.24436,-0.82725 0.5548,-1.6312 0.79693,-2.4583 0.0604,-0.20624 0.12369,-0.41308 0.15614,-0.62552 0.0244,-0.15947 0.168,-0.52965 0.0133,-0.48379 -1.54445,0.45794 -2.98768,1.20576 -4.48152,1.80863 -0.21284,0.53565 -0.34105,1.11288 -0.76327,1.55632 -0.66518,0.7912 -1.45057,1.4831 -2.33175,2.0271 7.65397,-4.39642 4.72349,-2.49942 2.91929,-1.80522 -0.60359,0.15216 -1.22929,0.21707 -1.84756,0.27864 -0.42485,-0.0365 -0.85288,-0.10483 -1.25279,-0.25759 -0.411,-0.16746 -0.87268,-0.17205 -1.30522,-0.25704 -0.50545,-0.0977 -0.99305,-0.23534 -1.31534,-0.67136 -0.10084,-0.25952 -0.17199,-0.58378 -0.0416,-0.84419 0.58673,-1.6402 -0.11583,0.39909 -4.1296,2.3259 -0.21607,0.10373 -0.14154,-0.38632 -0.26285,-0.45755 -0.0527,-0.031 0.0308,0.25406 -0.0416,0.17859 -0.12161,0.54332 -0.43964,1.02288 -0.6299,1.54238 -0.32644,0.72344 -0.68645,1.42794 -1.2338,2.01569 -0.45965,0.47158 -0.9253,0.92088 -1.46105,1.30782 -0.17807,0.12861 -0.74186,0.46986 -0.54981,0.36325 7.56726,-4.20076 5.51631,-3.09756 3.89625,-2.23014 -0.91291,0.28381 -1.63062,0.23643 -2.40377,-0.37933 -0.89382,-0.67626 -1.61166,-1.46004 -2.03723,-2.51803 -0.83945,-2.06762 -1.37974,-4.21869 -1.45595,-6.46187 -0.0771,-3.21234 0.21254,-6.42642 1.15875,-9.51294 0.21981,-0.65895 0.4218,-1.39305 0.76721,-2.00912 0.0977,-0.17423 0.54092,-0.56676 0.36237,-0.47723 -8.34004,4.18148 -6.13645,3.35668 -4.34856,2.45477 0.99175,0.005 1.21796,0.95845 1.30876,1.80756 0.10201,2.68469 -0.33721,5.34232 -1.36877,7.83316 -1.52545,3.29659 -3.51928,6.31975 -6.14501,8.85667 -2.46855,2.22349 -1.2716,0.97706 2.92258,-1.15286 0.38147,-0.19372 -0.70856,0.48258 -1.08555,0.68491 -0.96749,0.51925 -1.89445,0.81335 -2.97237,0.4825 -0.2458,-0.17702 -0.51812,-0.32207 -0.73739,-0.53104 -1.29423,-1.23336 -1.49244,-3.0617 -1.35028,-4.74319 0.12574,-1.03164 0.32441,-2.06653 0.41343,-3.10163 0.0226,-0.26312 0.27751,-0.86195 0.0229,-0.79193 -5.15216,1.41666 -4.61175,0.64706 -5.8019,2.60602 -0.61453,1.37644 -1.2493,2.74514 -2.01088,4.0481 -0.94036,1.58004 -1.95905,3.11229 -3.13667,4.52784 -0.52724,0.60399 -1.05536,1.19539 -1.68151,1.70105 -0.18489,0.14931 -0.78245,0.53697 -0.57391,0.423 3.46768,-1.89513 6.77833,-3.93528 4.45152,-2.50706 -0.7789,0.32748 -1.53756,0.45238 -2.37573,0.28984 -0.77636,-0.1582 -0.61741,-1.23512 -0.76526,-1.84753 -0.20651,-1.85609 -0.19527,-3.72631 -0.44662,-5.57739 -0.22687,-1.16269 -0.50328,-2.45464 -1.593,-3.11314 -0.9641,-0.36291 -1.91599,-0.32316 -2.91188,-0.0722 -3.53716,0.96455 -6.62395,2.94328 -8.45989,6.01465 -1.02485,1.88655 -1.8444,3.88971 -2.37222,5.97388 -0.55062,2.56543 -1.3623,8.27763 5.42708,-0.22901 0.0317,-0.13964 0.0349,-0.28163 0.0306,-0.4244 -0.0273,-0.19556 -0.017,-0.39524 -0.0308,-0.59198 -0.0466,-0.88274 -0.0726,-1.76616 -0.14242,-2.64755 -0.11118,-1.353 -0.21139,-2.7084 -0.38265,-4.05516 -0.22184,-1.40425 -0.53281,-2.82939 -1.3441,-4.02449 -0.57373,-0.65314 -1.1884,-1.16106 -2.0903,-1.23459 -3.11806,-0.17384 -5.70387,2.52251 -8.26924,3.91819 -1.45056,1.01917 -2.76413,2.22189 -3.79968,3.67046 -1.19309,1.83601 -2.27429,3.7765 -2.90197,5.88525 -0.87183,3.63339 -0.0591,2.3323 5.40382,-0.77726 -0.0492,-0.17837 -0.0367,-0.37031 -0.0583,-0.5526 -0.0882,-1.02991 -0.16565,-2.06202 -0.33085,-3.08332 -0.23561,-1.2713 -0.54008,-2.52831 -0.93502,-3.76017 -0.38115,-1.1724 -0.85291,-2.32775 -1.642,-3.291 -0.7556,-0.77672 -1.62447,-1.49229 -2.72323,-1.68007 -2.97645,0.0608 -5.46372,2.00105 -7.87749,3.60512 -1.24439,1.10314 -1.91325,2.61072 -2.55174,4.12251 -0.6411,1.76089 -1.17494,3.57958 -1.29555,5.45988 0,0 4.03707,-2.02574 4.03707,-2.02574 z" />
  <path
     style="fill:#000000;stroke:none;stroke-width:0.377953"
     id="path905"
     d="m 563.24374,417.87102 c 1.88165,0.14545 3.88337,0.0966 5.67826,-0.56269 0.65705,-0.24133 1.27632,-0.57517 1.91449,-0.86276 0.72559,-0.41839 1.45118,-0.83678 2.17677,-1.25517 0,0 0.13329,-0.10264 0.13329,-0.10264 v 0 c 0.16032,-0.2564 0.32063,-0.51281 0.48095,-0.76921 -0.0941,-0.11706 -0.1349,-0.32248 -0.28234,-0.3512 -0.34212,-0.0666 -0.69531,0.0527 -1.04149,0.0934 -1.48917,0.17471 -2.97299,0.39975 -4.47282,0.47758 0,0 -4.58711,3.33273 -4.58711,3.33273 z" />
  <path
     style="fill:#000000;stroke:none;stroke-width:0.377953"
     id="path907"
     d="m 532.41669,411.23867 c 1.58671,0.0549 3.75727,0.36018 5.24592,-0.28135 1.03917,-0.44783 1.996,-1.06664 2.994,-1.59995 0,0 0.13541,-0.0998 0.13541,-0.0998 v 0 c 0.39406,-0.49142 1.03139,-0.86267 1.18219,-1.47425 0.0635,-0.25757 -0.5161,-0.13976 -0.78106,-0.15262 -1.33397,-0.0648 -2.69292,0.2179 -4.02963,0.18473 0,0 -4.74683,3.42326 -4.74683,3.42326 z" />
  <path
     style="fill:#000000;stroke:none;stroke-width:0.377953"
     id="path909"
     d="m 602.10413,404.64082 c -1.6554,0.0904 -3.16682,0.81119 -4.57155,1.64451 -5.77006,3.42297 -4.002,2.0488 -6.72854,4.30911 -1.52901,1.51976 -3.16637,3.13943 -3.66388,5.30194 -0.0501,1.84101 1.48136,2.66455 2.9108,3.43728 1.85198,0.90147 3.69424,1.81287 5.38639,2.99296 1.46821,1.01178 2.36772,2.29937 2.65983,4.04756 0.1411,2.58687 -1.39472,3.9297 -3.24169,5.45435 -0.40746,0.29605 -0.80741,0.6027 -1.22236,0.88814 -0.42862,0.29485 -0.86376,0.58068 -1.30755,0.85216 -0.46,0.2814 -1.86343,1.08616 -1.40276,0.80584 5.92853,-3.60766 3.39459,-1.90551 1.04522,-1.05376 -1.56728,0.44469 -3.20918,0.56722 -4.80684,0.23498 -1.32672,-0.44565 -1.41307,-1.73453 -1.32915,-2.94862 0.39943,-2.09282 1.84326,-3.72336 3.22327,-5.26369 2.08596,-2.07075 3.99319,-4.3011 5.76113,-6.64652 1.47835,-1.99276 2.73803,-4.13144 3.93295,-6.30195 0.84009,-1.61065 1.81524,-3.14251 2.79623,-4.66935 0.13805,-0.38938 1.41678,-1.91114 1.39578,-2.27468 -0.004,-0.0664 -0.11414,-0.0685 -0.17121,-0.10275 -0.53918,-0.0331 -1.84541,0.85946 -1.98343,0.50153 0,0 -0.1543,0.067 -0.1543,0.067 v 0 c -0.78644,0.6771 -1.84319,0.91659 -2.65557,1.56571 -0.83838,0.6985 -1.244,1.73228 -1.84713,2.62877 -0.95003,1.53098 -1.89532,3.0665 -2.71333,4.67358 -1.13686,2.10277 -2.28631,4.20751 -3.73138,6.11968 -1.78663,2.33321 -3.73363,4.52208 -5.79285,6.61873 -1.40041,1.64666 -2.82296,3.38384 -3.07338,5.60969 -0.0353,1.46537 0.0599,2.97115 1.50585,3.72375 1.62247,0.64347 3.43149,0.39809 5.09106,0.013 4.6063,-1.57695 8.76274,-4.32847 12.68714,-7.16749 1.94242,-1.72333 3.304,-3.21705 2.93126,-5.97455 -0.45716,-1.81401 -1.45913,-3.2389 -2.99325,-4.33479 -1.70626,-1.19281 -3.51871,-2.18979 -5.41243,-3.05624 -1.13793,-0.58793 -2.7801,-1.22367 -2.65458,-2.74727 0.61335,-2.00211 2.15124,-3.53104 3.64597,-4.92964 2.22823,-1.74477 1.14692,-0.79926 -2.12779,0.89263 -0.42275,0.21841 0.81006,-0.50063 1.22956,-0.72521 0.96712,-0.51776 1.98957,-0.99422 3.09805,-1.0736 0,0 4.28446,-3.11284 4.28446,-3.11284 z" />
  <path
     style="fill:#000000;stroke:none;stroke-width:0.377953"
     id="path911"
     d="m 620.37133,406.34066 c -1.05051,0.22584 -2.05449,0.62401 -2.98492,1.16197 -3.98194,2.30232 -4.73632,2.5264 -7.37469,5.03235 -1.32452,1.38375 -2.66481,2.86325 -3.22924,4.73076 -0.25517,1.33556 0.68203,2.0616 1.75672,2.60347 1.59744,0.72774 3.31848,1.07896 4.90276,1.83798 1.37808,0.67038 2.1911,1.60612 2.4321,3.11241 -0.0527,2.08007 -1.02835,4.01319 -2.04492,5.78063 -1.28593,2.18384 -3.23292,3.76978 -5.27331,5.20754 -1.91213,1.11568 -5.62916,3.56145 3.01507,-1.76431 0.17212,-0.10604 -0.60476,0.26432 -1.37075,0.36313 -0.72511,0.0571 -1.36987,-0.21544 -1.98259,-0.56992 -0.77664,-0.52686 -1.37508,-1.08408 -1.69844,-1.97366 -0.42129,-1.97289 0.83973,-3.71433 1.89183,-5.26587 1.85157,-2.46964 4.1809,-4.52311 6.43497,-6.61301 2.0488,-1.88088 3.83768,-4.00707 5.51824,-6.21566 1.34266,-1.7718 2.48168,-3.6843 3.50596,-5.65408 0.56827,-1.02586 0.78417,-1.93047 0.29777,-3.01443 -1.61525,-2.41336 -2.2417,-0.35797 -4.64422,0.15006 0,0 -0.13728,0.0972 -0.13728,0.0972 v 0 c 0.43892,0.92638 0.018,-0.15311 -1.53867,1.66335 -0.0939,0.10954 1.17047,0.8726 1.06325,1.05595 0.40949,0.89157 -0.19836,1.72349 -0.56254,2.54075 -0.96263,1.92735 -2.07744,3.77791 -3.39457,5.48607 -1.67043,2.16488 -3.45181,4.2435 -5.47413,6.09164 -2.25374,2.11446 -4.58789,4.19622 -6.37336,6.73925 -1.09588,1.74468 -2.26417,3.64011 -1.69346,5.77471 0.36446,0.95455 0.89171,1.71583 1.68384,2.37103 0.57777,0.55665 1.23504,0.96039 2.05039,1.0464 3.41063,0.0611 6.19101,-2.80394 9.01286,-4.52921 1.95231,-1.47993 3.75497,-3.14124 4.9125,-5.34019 0.93534,-1.86331 1.92154,-3.89244 1.65344,-6.03321 -0.44852,-1.6419 -1.43461,-2.57334 -2.90547,-3.39497 -1.57576,-0.77385 -3.253,-1.21218 -4.89098,-1.83002 -0.78198,-0.41515 -1.75059,-0.86477 -1.49466,-1.90717 0.62866,-1.68959 1.77359,-3.10682 3.0327,-4.3763 1.84521,-1.71732 4.17689,-2.94661 -0.79886,-0.21557 -0.10821,0.0594 0.84197,-0.57011 2.03444,-0.99536 0.24902,-0.0888 0.5093,-0.14216 0.76395,-0.21324 0,0 3.90427,-2.9405 3.90427,-2.9405 z" />
  <path
     style="fill:#000000;stroke-width:0.377953"
     id="path878"
     d="m 85.821291,22.513536 c -5.928543,3.286019 -11.865984,6.548927 -16.328736,11.740893 -2.424578,2.820754 -2.724572,3.57421 -4.704184,6.746026 -2.897268,5.635378 -5.681703,12.611029 -3.028187,18.928751 0.446653,1.063431 1.221789,1.956725 1.832684,2.935087 0.988778,0.736524 1.86708,1.651191 2.966335,2.209572 7.799169,3.961696 15.655688,-0.670639 22.297045,-4.53262 0,0 0.264006,-0.208564 0.264006,-0.208564 v 0 c -0.16481,-0.179197 -0.260274,-0.47092 -0.49443,-0.537591 -1.577049,-0.449031 -4.096504,0.288625 -5.412916,0.361395 -2.677275,0.147999 -4.869153,0.02582 -7.370887,-1.020825 -1.051413,-0.439877 -1.95482,-1.172402 -2.93223,-1.758603 -0.65389,-0.830549 -1.434717,-1.575293 -1.961672,-2.491646 -3.215781,-5.592114 -0.976549,-12.093257 1.698039,-17.354314 2.07002,-3.368222 4.14888,-6.397356 7.109309,-9.065659 0.797573,-0.718871 1.657306,-1.367052 2.518949,-2.007731 0.768533,-0.571446 3.232788,-2.038875 2.368488,-1.626346 -1.944157,0.927944 -3.750473,2.120676 -5.62571,3.181015 0,0 6.804097,-5.49884 6.804097,-5.49884 z" />
  <path
     style="fill:#000000;stroke-width:0.377953"
     id="path880"
     d="m 115.86206,26.629363 c -7.06941,2.865732 -13.5062,7.026119 -17.708731,13.435561 -0.858633,1.309534 -1.564939,2.712838 -2.347408,4.069257 -2.402385,5.286333 -4.792775,11.621639 -1.784453,17.235094 1.611653,3.007306 2.8123,3.189507 5.62068,4.842745 7.242512,0.502171 3.386722,0.719219 11.530872,-1.125739 0,0 0.27378,-0.195558 0.27378,-0.195558 v 0 c -1.83157,-2.983872 -0.60022,-1.658025 -3.89264,-3.78339 -2.25908,-1.471787 -3.63277,-1.982517 -5.03197,-4.430693 -3.030243,-5.302022 -0.62315,-11.275874 1.69338,-16.281068 2.06042,-3.474707 2.28334,-4.21219 4.84782,-7.20296 0.72484,-0.845325 1.50614,-1.64532 2.33423,-2.389781 0.6243,-0.561247 2.78215,-1.84767 2.01078,-1.5164 -1.78204,0.765317 -3.39848,1.870151 -5.08093,2.834906 -0.50495,0.28955 1.03175,-0.539217 1.54762,-0.808826 0,0 5.98697,-4.683148 5.98697,-4.683148 z" />
  <path
     style="fill:#000000;stroke-width:0.377953"
     id="path892"
     d="m 117.66137,52.975678 c 3.64876,-1.370581 7.47948,-1.909221 11.34047,-2.221552 5.37379,-0.01363 6.86459,-0.953017 11.46143,-3.931199 0.18766,-0.05518 0.37533,-0.110355 0.56299,-0.165533 0,0 0.26641,-0.205489 0.26641,-0.205489 v 0 c -0.1874,0.05553 -0.3748,0.111051 -0.56219,0.166576 0.64604,-0.61343 1.36351,-1.159494 1.93813,-1.840291 0.67101,-0.795 -0.5159,-0.601984 -0.7361,-0.586654 -1.54071,0.10726 -3.0719,0.467736 -4.62729,0.424845 -4.07134,0.341715 -8.14942,0.840196 -11.97076,2.382627 0,0 -7.67309,5.97667 -7.67309,5.97667 z" />
  <path
     style="fill:#000000;stroke-width:0.377953"
     id="path894"
     d="m 157.99863,35.691951 c -0.84569,5.848038 -1.14304,11.749303 -1.50575,17.641112 -0.2936,4.142242 -0.43435,8.290938 -0.56468,12.440517 -0.009,1.313466 0.12531,2.619605 0.16377,3.931674 0.0128,0.436197 0.39849,0.702223 0.72024,0.930811 0.24094,0.190272 0.50623,0.08999 0.8075,0.04763 1.28993,-0.116668 2.58677,-0.126739 3.88066,-0.164395 1.87305,-0.01991 3.70668,-0.408621 5.52285,-0.827976 4.97503,-1.200583 9.48264,-4.0587 13.37316,-7.348368 1.41551,-1.17157 2.43147,-2.645164 3.03693,-4.36811 0.44901,-1.448287 0.49193,-2.908862 0.088,-4.365475 -0.5923,-1.595985 -1.98866,-2.62124 -3.32425,-3.577598 -1.56802,-1.050989 -3.27683,-1.797818 -5.08579,-2.31222 -1.59662,-0.407366 -3.25199,-0.390796 -4.88698,-0.371526 -1.12816,0.05225 -2.25093,0.246091 -3.34895,0.507241 -0.23651,0.07066 -0.48041,0.135291 -0.72054,0.148921 2.02366,3.720086 0.92454,0.766182 -6.7243,5.600036 -0.2735,0.172848 0.60365,-0.233232 0.9079,-0.343293 0.35633,-0.128901 0.71573,-0.249148 1.07367,-0.373532 1.72377,-0.59902 0.80456,-0.262983 2.65336,-0.976313 5.1689,-2.374273 10.74818,-4.657297 14.6219,-8.928988 1.46814,-1.99164 2.30372,-4.331791 2.95144,-6.695738 0.4229,-1.339065 -0.0302,-2.422474 -0.80702,-3.499932 -0.90383,-1.192938 -1.9078,-2.318857 -3.11398,-3.21032 -1.30573,-0.869365 -2.84737,-0.941489 -4.36636,-0.968089 -2.89605,0.04702 -4.77657,0.634385 -7.24,2.141279 -5.82674,3.925482 -7.81442,3.187797 -4.95904,3.982871 0,0 0.31136,-0.127482 0.31136,-0.127482 v 0 c 3.65208,-2.138202 3.19409,-1.906972 -1.24726,0.901888 1.61868,-0.258672 3.37358,-1.277908 5.17341,-1.104599 1.40306,-0.0475 2.84921,-0.117771 4.17454,0.427501 1.26286,0.646881 2.33303,1.589652 3.16727,2.739895 0.61747,0.868938 0.84688,1.622357 0.58451,2.698784 -0.52355,2.228138 -1.3004,4.402884 -2.85476,6.137218 -2.4796,2.39674 -6.50937,4.218636 4.51698,-1.939798 0.4103,-0.229164 -0.80692,0.482841 -1.22209,0.703068 -0.93594,0.496466 -1.74807,0.837255 -2.71571,1.267448 -5.34613,2.106488 -6.76087,1.605771 -13.02103,6.355514 -0.38172,0.289621 0.29219,0.912682 0.43828,1.369023 0.19848,-0.179503 0.46432,-0.282672 0.72884,-0.369696 1.13249,-0.404209 2.28828,-0.696014 3.47668,-0.888224 1.49226,-0.142556 2.9879,0.05988 4.45954,0.31621 1.74152,0.407395 3.41836,1.032062 4.92397,2.015866 1.18441,0.776789 2.4691,1.588962 3.03852,2.944927 0.29795,1.269576 0.22088,2.551247 -0.26224,3.771762 -0.72712,1.553661 -1.78314,2.862902 -3.16064,3.900389 -2.631,2.020536 -7.50255,4.671129 5.40997,-2.829326 1.40105,-0.813824 -3.63602,2.032709 -2.52704,0.944081 -1.71351,0.377487 -3.45057,0.714259 -5.20421,0.821639 -1.2656,0.03556 -2.53156,0.0178 -3.79736,0.04603 -0.16881,0.0017 -0.54445,-0.07654 -0.49988,0.126507 -0.0211,0.09109 -0.0193,0.355631 -0.0345,0.05729 -0.29978,-1.217963 -0.25736,-2.475544 -0.28079,-3.72164 -0.079,-4.03182 -0.065,-8.066188 -0.0346,-12.09829 0.13393,-5.796291 0.40534,-11.597658 1.10914,-17.355914 0,0 -7.80463,3.849704 -7.80463,3.849704 z" />
  <path
     style="fill:#000000;stroke-width:0.377953"
     id="path896"
     d="m 190.39177,35.317006 c 1.06875,2.633791 2.27261,5.228216 3.67508,7.702519 0.31784,0.782366 1.00935,1.285089 1.42745,1.988833 5.18164,-2.514662 9.98429,-5.533312 14.70135,-8.780299 3.0166,-2.210622 6.01908,-4.44122 8.94482,-6.77123 0.78748,-0.618749 1.59552,-1.210337 2.41646,-1.783454 -5.63534,1.468901 -7.88364,2.999474 -11.39546,6.326146 -3.60135,3.172395 -6.51714,6.988147 -9.43131,10.774436 -3.49706,4.528174 -6.88983,9.135375 -10.36517,13.679908 -1.42479,2.008084 -3.14443,3.829466 -4.33794,5.993564 -0.51935,1.129596 -1.22943,2.168338 -1.74761,3.293213 -0.13982,0.652266 -1.05253,1.615208 -0.84088,2.304169 0.18081,-0.104183 0.36162,-0.208366 0.54244,-0.312549 0,0 8.3405,-3.613156 8.3405,-3.613156 v 0 c 0.22892,-0.170947 0.45784,-0.341894 0.68676,-0.512841 0.53809,-0.678341 0.7064,-1.58894 1.14117,-2.333725 0.56144,-1.041558 1.0092,-2.139272 1.59309,-3.169693 1.08999,-1.943716 2.43875,-3.722727 3.69099,-5.562847 3.27428,-4.563213 6.61634,-9.075004 10.04538,-13.523492 2.85225,-3.70908 5.69511,-7.454897 9.25082,-10.533955 3.65618,-3.396626 5.93253,-6.228855 -6.10815,0.714619 -0.78625,0.540884 -1.48187,1.208457 -2.24491,1.779637 -2.88964,2.351958 -5.87605,4.586516 -8.95259,6.68844 -3.63615,2.401864 -14.38427,9.076102 2.15863,-0.37662 0.17585,0.885347 -0.91716,-1.094748 -1.14744,-1.152652 -1.63385,-2.254196 -2.97009,-4.707837 -4.04902,-7.274112 0,0 -7.99446,4.455141 -7.99446,4.455141 z" />
  <path
     style="fill:#000000;stroke-width:0.377953"
     id="path898"
     d="m 216.35646,53.091887 c 3.97925,-0.607879 7.9791,-0.999403 11.99938,-1.175263 4.93212,0.28237 7.93637,-1.734238 12.0735,-4.133954 0,0 0.26525,-0.206973 0.26525,-0.206973 v 0 c 0.17069,-0.53448 0.77789,-0.940058 0.76192,-1.500904 -0.0168,-0.591169 -4.79424,0.07521 -5.12315,-0.01166 -4.17887,0.209932 -8.34145,0.598057 -12.45716,1.379561 0,0 -7.51974,5.649189 -7.51974,5.649189 z" />
  <path
     style="fill:#000000;stroke-width:0.377953"
     id="path900"
     d="m 254.60451,64.894867 c -0.35371,-5.018564 0.17507,-10.019125 0.81305,-14.990399 0.72909,-5.445153 1.74651,-10.842569 3.12804,-16.158974 0.68532,-2.12988 1.24382,-4.31268 1.90848,-6.443187 -2.46325,1.489378 -5.11929,2.698699 -7.38974,4.468133 -0.31129,0.242597 0.11041,0.781776 0.1494,1.1745 0.0654,0.658841 0.11651,1.319088 0.16374,1.979481 0.20624,2.883191 0.34259,5.772228 0.518,8.657406 0.26733,5.565969 0.96889,11.080946 1.9001,16.56898 0.32856,2.078989 0.95111,4.020477 2.28894,5.659826 0.59535,0.694809 1.43242,1.133988 1.99318,1.854793 0.11435,0.102446 0.15861,0.30168 0.21833,0.408155 10.30796,-5.832831 7.9594,-2.750588 10.35637,-9.799396 1.99243,-5.542535 3.36295,-11.266787 4.82616,-16.962626 0.79675,-3.313189 1.81598,-6.57531 2.48979,-9.917183 -0.4966,-0.999799 -3.72904,1.045084 -4.07627,1.213295 0,0 -0.31382,0.121291 -0.31382,0.121291 v 0 c -1.57242,0.773245 -3.60743,1.432872 -4.6061,2.987004 -0.89138,3.253008 -1.50719,6.574678 -2.35449,9.839573 -1.40195,5.733011 -2.88927,11.448521 -5.03098,16.959437 -2.48202,6.88876 -2.97668,5.990587 7.33236,0.16446 -0.15471,-0.06642 -0.39241,-0.114415 -0.55513,-0.217426 -0.80391,-0.414048 -1.46121,-1.054055 -2.22016,-1.543034 -1.40098,-1.332412 -2.02591,-3.121934 -2.53441,-4.956012 -1.3446,-5.297887 -1.96836,-10.741495 -2.35663,-16.186599 -0.17846,-2.903223 -0.30415,-5.803297 -0.42099,-8.709385 -0.0279,-0.693084 -0.0382,-1.387348 -0.0921,-2.078893 -0.035,-0.449294 0.26587,-1.436196 -0.17455,-1.340658 -2.74391,0.595229 -5.22677,2.052846 -7.84016,3.079269 -1.40002,2.024803 -1.63155,4.639248 -2.35388,6.932759 -1.30094,5.322332 -2.21814,10.719243 -2.87581,16.158956 -0.60522,5.026798 -1.23173,10.085504 -0.77852,15.154754 0,0 7.88783,-4.0783 7.88783,-4.0783 z" />
  <path
     style="fill:#000000;stroke-width:0.377953"
     id="path904"
     d="m 296.74244,53.529352 c 4.04928,-0.800387 8.14971,-1.24766 12.25857,-1.598042 4.27931,-0.162723 5.9061,-1.468788 9.66096,-3.804449 0,0 0.26816,-0.203188 0.26816,-0.203188 v 0 c 0.76578,-0.74933 1.69132,-1.36445 2.29735,-2.247991 0.36056,-0.525678 -3.67162,-0.117211 -3.5358,-0.18208 -4.23401,0.423008 -8.51137,0.702075 -12.65837,1.705611 0,0 -8.29087,6.330139 -8.29087,6.330139 z" />
  <path
     style="fill:#000000;stroke-width:0.377953"
     id="path906"
     d="m 358.52398,34.656129 c -5.2314,0.752255 -10.43109,2.015419 -15.21409,4.290708 -1.91628,1.162871 -12.16001,4.965577 -9.1682,10.098724 0.28587,0.490485 0.72149,0.876729 1.08223,1.315094 3.10861,2.706452 7.11778,3.917447 10.68122,5.857026 3.09132,2.67915 1.23064,4.209248 -1.40398,6.223275 -5.80521,3.456501 2.74867,-1.529189 4.03814,-2.425017 0.64893,-0.450823 -1.43437,0.666744 -2.17361,0.945793 -2.03261,0.767274 -4.1204,1.159119 -6.25131,1.521236 -2.40642,0.326993 -4.8664,0.641047 -7.07868,1.728742 -3.59718,1.768596 -1.44221,1.179708 -2.94899,1.563069 0,0 -0.26765,0.203872 -0.26765,0.203872 v 0 c 1.35374,-0.275089 -1.38651,0.871612 -0.90228,1.900374 0.52124,1.107409 2.62218,0.275658 3.43242,0.425773 7.66943,-1.017487 14.49331,-4.454451 20.61896,-9.330146 0.37743,-0.431696 0.82416,-0.811476 1.13227,-1.295088 1.42216,-2.232314 -0.42044,-4.315341 -2.37665,-5.277389 -3.59273,-1.783434 -7.49327,-3.079893 -10.69592,-5.531713 -1.57797,-1.809955 -1.91524,-2.708252 -0.13762,-4.627924 0.40094,-0.43298 1.85301,-1.409434 1.30116,-1.200421 -1.60376,0.607424 -3.02463,1.617313 -4.53694,2.42597 4.71749,-2.443064 9.90398,-3.753045 15.13658,-4.576922 0,0 5.73294,-4.235036 5.73294,-4.235036 z" />
  <path
     style="fill:#000000;stroke-width:0.377953"
     id="path908"
     d="m 365.51654,63.915318 c 4.6211,-4.558853 8.60166,-9.658983 12.38332,-14.918389 3.29401,-4.831903 6.32808,-9.842233 8.93343,-15.079055 1.51551,-3.554798 3.04894,-4.280269 -6.08682,2.132731 -0.25486,0.178905 -0.0188,0.622496 -0.0298,0.933688 -0.0181,0.50805 -0.0383,1.016018 -0.0575,1.524027 -0.33444,5.94356 -1.02092,11.8583 -1.41589,17.797087 -0.13267,4.110825 -0.17702,8.283014 1.33823,12.160491 0.35352,0.738184 0.78041,1.530281 1.52541,1.931299 10e-4,-0.150596 0.25556,0.288587 0.23271,0.190897 -0.23011,-0.983536 0.25955,-0.906932 1.29276,-1.4882 0,0 4.75638,-2.482179 4.75638,-2.482179 v 0 c 0.51835,-0.33427 1.90215,-0.833038 1.20358,-1.695613 -0.0483,-0.05964 0.064,0.245488 0.0125,0.229899 -0.57896,0.220139 -1.09992,-0.592832 -1.4155,-0.967925 -1.75732,-3.552831 -1.78704,-7.627802 -1.70846,-11.510976 0.32881,-5.915218 0.93742,-11.809143 1.24207,-17.72605 0.0253,-0.532035 0.0779,-1.063474 0.0759,-1.596106 -10e-4,-0.369494 0.27152,-1.196786 -0.0864,-1.105118 -5.80659,1.487032 -6.62074,1.498749 -8.51667,5.116543 -2.72911,5.126219 -5.63834,10.15565 -8.92813,14.947044 -3.58785,5.115897 -7.44584,9.998961 -11.74345,14.542209 0,0 6.99237,-2.936304 6.99237,-2.936304 z" />
  <path
     style="fill:#000000;stroke-width:0.377953"
     id="path910"
     d="m 366.00785,59.647347 c 4.61075,-0.486044 7.02205,-1.836109 11.05398,-4.213707 0,0 0.26667,-0.205153 0.26667,-0.205153 v 0 c 0.38099,-0.506741 0.97899,-0.907812 1.14298,-1.520225 0.21597,-0.806479 -4.54301,0.250508 -4.88108,0.243263 0,0 -7.58255,5.695822 -7.58255,5.695822 z" />
  <path
     style="fill:#000000;stroke-width:0.377953"
     id="path914"
     d="m 440.76396,66.566072 c -0.0854,-5.368395 0.2105,-10.734696 0.40679,-16.097958 0.22597,-4.008343 0.26642,-8.031414 -0.18935,-12.024058 -0.28404,-1.007102 -0.29149,-2.524605 -1.41357,-2.978975 -2.71428,-0.199218 -5.44816,2.496664 -7.49614,4.465481 0.0287,1.117839 -0.49487,2.189472 -0.91541,3.221352 -1.79199,3.901707 -4.4909,7.276103 -7.22895,10.546441 -1.92973,2.240569 -3.95717,4.3957 -6.13505,6.396234 -0.54337,0.244502 -1.90087,1.633129 -0.25886,1.763589 1.0984,-0.146486 2.2031,-0.242696 3.30815,-0.32711 3.18391,-0.03315 6.14414,-1.122283 9.10024,-2.184799 3.19199,-1.237094 6.42256,-2.368448 9.64285,-3.528269 2.52829,-0.925665 4.70423,-2.550308 6.99438,-3.930359 0,0 0.26858,-0.202631 0.26858,-0.202631 v 0 c 0.30583,-0.360693 0.60937,-0.723334 0.91747,-1.082079 1.28427,-1.495341 1.05933,-1.206248 -0.27404,-0.94646 -3.28362,1.115329 -6.53409,2.324358 -9.76204,3.59164 -3.15079,1.238598 -6.29514,2.572442 -9.69699,2.927161 -1.2309,0.193079 -2.47297,0.341448 -3.6917,0.596675 -0.3676,0.138998 0.13583,1.831944 0.80782,0.282352 1.84044,-1.962106 3.51898,-4.06596 5.2619,-6.113282 2.73971,-3.356324 5.39989,-6.83127 7.23584,-10.781392 0.16725,-0.399275 0.87989,-2.871593 1.23594,-3.036485 2.70346,-2.702823 -6.18514,4.729041 -4.98269,2.452668 0.63006,-0.71152 0.83177,1.968628 0.76054,2.175069 0.40533,4.024707 0.0923,8.034884 -0.13526,12.064601 -0.31054,5.445528 -0.57373,10.893259 -0.7848,16.343536 0,0 7.02435,-3.592942 7.02435,-3.592942 z" />
  <path
     style="fill:#000000;stroke-width:0.377953"
     id="path916"
     d="m 458.07692,69.558815 c -0.20465,-1.078903 0.43975,-5.131687 -0.45388,-5.798213 -0.2353,-0.1755 -0.57286,-0.128418 -0.85929,-0.192627 -0.82917,0.258399 -1.65834,0.516798 -2.48751,0.775198 0,0 -0.29881,0.15462 -0.29881,0.15462 v 0 c -0.80884,0.582257 -1.61768,1.164514 -2.42653,1.746771 -0.27345,0.351812 -0.6111,0.662035 -0.82035,1.055434 -0.94147,1.77005 0.13555,4.197216 -0.0577,6.065982 0,0 7.40409,-3.807165 7.40409,-3.807165 z" />
  <path
     style="fill:#000000;stroke-width:0.377953"
     id="path922"
     d="m 288.71977,35.064132 c -2.59325,1.562731 -4.90755,3.465937 -6.92919,5.710852 -2.01766,2.460485 -3.54648,5.264325 -5.18534,7.978699 -1.42722,2.013702 -1.7969,4.400624 -2.42322,6.715488 -0.26432,1.301097 -0.0419,2.312002 0.66788,3.40073 0.54536,0.918116 1.3593,1.628426 1.96892,2.493544 0.60583,0.798317 1.27554,1.539796 1.97798,2.25644 0.76628,0.817425 1.53134,1.633259 2.3793,2.367 0.48002,0.485944 1.02266,0.898688 1.62876,1.212991 0.45816,0.234185 0.90973,0.456743 1.40906,0.587789 0.7798,0.213669 1.25516,0.01274 2.01455,-0.267421 1.41627,-1.204554 2.83255,-2.409109 4.24882,-3.613663 0,0 -0.30568,0.140563 -0.30568,0.140563 v 0 c 1.28744,-0.901811 2.57489,-1.803621 3.86233,-2.705432 1.32853,-0.461879 0.26033,-0.239567 -0.21141,-0.31633 -0.49164,-0.01825 -0.94531,-0.06275 -1.40993,-0.243366 -0.60439,-0.181817 -1.12447,-0.492066 -1.65114,-0.840739 -0.93446,-0.639058 -1.89626,-1.243423 -2.75245,-1.98908 -0.75671,-0.690868 -1.5281,-1.362927 -2.30856,-2.022879 -0.81197,-0.593752 -1.45106,-1.408216 -2.06529,-2.196562 -0.54031,-0.824039 -0.58043,-1.698382 -0.61644,-2.672154 -0.29882,-1.860812 0.14354,-3.845205 0.84854,-5.568625 1.22395,-2.671329 2.67021,-5.258623 4.57199,-7.512622 1.92749,-2.15017 4.19049,-3.90482 6.66539,-5.393341 0,0 -6.38487,2.478118 -6.38487,2.478118 z" />
  <path
     style="fill:#000000;stroke-width:0.377953"
     id="path926"
     d="m 473.35753,36.383958 c -3.2239,2.294851 -6.21967,4.892547 -9.11594,7.583446 -2.46133,2.550329 -4.79394,5.286808 -6.38798,8.470626 -1.02567,2.743861 0.29204,5.038717 1.76343,7.298249 1.27597,1.955954 3.01216,3.520124 4.65724,5.15138 1.28939,1.32889 2.50889,2.712201 3.93403,3.899114 0.79474,0.679777 1.60129,1.145256 2.64322,1.250309 1.30302,0.04276 2.57358,-0.245709 3.79907,-0.661536 5.10356,-2.45733 10.88513,-4.595343 14.4042,-9.156108 1.365,-1.917028 1.92235,-4.197068 2.33611,-6.475093 0.41962,-2.277783 0.34789,-4.574971 -0.0243,-6.848181 -0.42189,-2.169895 -0.9589,-4.317022 -1.63557,-6.421374 -0.45467,-1.435005 -1.08903,-2.773774 -1.94513,-4.007487 -0.7192,-0.998268 -1.56342,-1.915438 -2.67533,-2.461743 -2.11356,-0.859734 -3.41946,0.694935 -5.41415,1.821062 -0.8773,0.495288 -1.73491,1.024665 -2.60236,1.536998 0,0 -0.26519,0.207053 -0.26519,0.207053 v 0 c -0.13729,0.249234 -0.21776,0.539639 -0.41186,0.747701 -1.33707,1.433252 -2.44378,1.171235 -1.38577,2.120715 0.73566,0.757442 1.64351,1.342789 2.20972,2.265615 0.83994,1.094776 1.41203,2.314446 1.79168,3.642911 0.6443,2.049118 1.19691,4.129175 1.54637,6.250865 0.29717,2.148675 0.33445,4.302663 -0.0975,6.441583 -0.43975,2.090727 -0.99089,4.158527 -2.41491,5.820985 -0.61426,0.623143 -0.73232,0.791625 -1.43013,1.310318 -0.24748,0.18396 -1.03788,0.665399 -0.76963,0.513307 16.65135,-9.440909 11.67762,-6.6865 8.13111,-4.687371 -1.10963,0.560471 -2.24391,0.978383 -3.49897,1.04853 -0.89716,0.08637 -1.66473,0.08736 -2.43763,-0.46028 -1.46195,-1.076382 -2.6764,-2.435833 -3.92326,-3.746394 -1.60528,-1.600242 -3.3727,-3.044075 -4.76481,-4.849117 -1.35841,-1.804059 -2.7097,-3.598107 -1.84968,-5.939061 1.42487,-3.023061 3.705,-5.530905 6.02228,-7.902259 2.86264,-2.707516 5.87614,-5.255083 9.15173,-7.455217 0,0 -9.34016,3.690454 -9.34016,3.690454 z" />
</svg>
